# xmcd CD database file
#
# Track frame offsets:
#	182
#	17290
#	61682
#	103680
#	135020
#	154770
#	187465
#
# Disc length: 2615 seconds
#
# Revision: 0
# Processed by: cddbd v1.5.2PL0 Copyright (c) Steve Scherf et al.
# Submitted via: CDex 1.70beta2
#
DISCID=4d0a3507
DTITLE=Albert Mangelsdorff Quartet - Never Let It End
DYEAR=1970
DGENRE=Jazz
TTITLE0=Wide Open
TTITLE1=Never Let It End (Spanish Waltz for La Singla)
TTITLE2=Certain Beauty
TTITLE3=The 13th Color
TTITLE4=Open Mind
TTITLE5=Roitz And Spring
TTITLE6=Nachwort
EXTD=YEAR: 1970
EXTT0=
EXTT1=
EXTT2=
EXTT3=
EXTT4=
EXTT5=
EXTT6=
PLAYORDER=
